<svg t="1726047130777" class="icon" viewBox="0 0 1024 1024" version="1.1" xmlns="http://www.w3.org/2000/svg" p-id="14056" width="200" height="200"><path d="M106.666667 192h810.666666v640H106.666667z" fill="#90A4AE" p-id="14057"></path><path d="M149.333333 234.666667h725.333334v554.666666H149.333333z" fill="#FFFFFF" p-id="14058"></path><path d="M192 277.333333h640v298.666667H192z" fill="#4FC3F7" p-id="14059"></path><path d="M192 576h640v-106.666667L192 448v128z" fill="#B3E5FC" p-id="14060"></path><path d="M192 640h640v106.666667H192z" fill="#1976D2" p-id="14061"></path><path d="M746.666667 469.333333m-64 0a64 64 0 1 0 128 0 64 64 0 1 0-128 0Z" fill="#B3E5FC" p-id="14062"></path><path d="M661.333333 448m-64 0a64 64 0 1 0 128 0 64 64 0 1 0-128 0Z" fill="#B3E5FC" p-id="14063"></path><path d="M512 448m-42.666667 0a42.666667 42.666667 0 1 0 85.333334 0 42.666667 42.666667 0 1 0-85.333334 0Z" fill="#B3E5FC" p-id="14064"></path><path d="M576 448m-42.666667 0a42.666667 42.666667 0 1 0 85.333334 0 42.666667 42.666667 0 1 0-85.333334 0Z" fill="#B3E5FC" p-id="14065"></path><path d="M234.666667 448m-42.666667 0a42.666667 42.666667 0 1 0 85.333333 0 42.666667 42.666667 0 1 0-85.333333 0Z" fill="#B3E5FC" p-id="14066"></path><path d="M277.333333 426.666667m-42.666666 0a42.666667 42.666667 0 1 0 85.333333 0 42.666667 42.666667 0 1 0-85.333333 0Z" fill="#B3E5FC" p-id="14067"></path><path d="M448 426.666667m-64 0a64 64 0 1 0 128 0 64 64 0 1 0-128 0Z" fill="#B3E5FC" p-id="14068"></path><path d="M362.666667 448m-64 0a64 64 0 1 0 128 0 64 64 0 1 0-128 0Z" fill="#B3E5FC" p-id="14069"></path><path d="M789.333333 469.333333m-42.666666 0a42.666667 42.666667 0 1 0 85.333333 0 42.666667 42.666667 0 1 0-85.333333 0Z" fill="#B3E5FC" p-id="14070"></path><path d="M192 640h640v-64h-64l-106.666667-42.666667-106.666666 42.666667-170.666667-128-192 128v64z" fill="#0D47A1" p-id="14071" data-spm-anchor-id="a313x.search_index.0.i0.353b3a81iFoxKq" class="selected"></path><path d="M832 832m-192 0a192 192 0 1 0 384 0 192 192 0 1 0-384 0Z" fill="#4CAF50" p-id="14072"></path><path d="M810.666667 725.333333h42.666666v213.333334h-42.666666z" fill="#FDFDFD" p-id="14073"></path><path d="M938.666667 810.666667v42.666666H725.333333v-42.666666z" fill="#FDFDFD" p-id="14074"></path></svg>