<svg t="1726047301589" class="icon" viewBox="0 0 1024 1024" version="1.1" xmlns="http://www.w3.org/2000/svg" p-id="17067" width="200" height="200"><path d="M574.577778 1024H443.733333a211.057778 211.057778 0 0 0-27.875555-9.671111 510.862222 510.862222 0 0 1-406.186667-408.462222c-2.275556-10.808889-6.257778-21.048889-9.102222-31.288889V443.733333a254.862222 254.862222 0 0 0 10.24-30.72A512 512 0 0 1 415.288889 9.671111c11.377778-2.275556 22.755556-6.257778 34.133333-9.671111h119.466667a84.764444 84.764444 0 0 0 14.791111 5.688889q299.235556 51.2 409.031111 333.937778c13.653333 35.271111 21.048889 73.386667 31.288889 110.364444v125.155556a222.435556 222.435556 0 0 0-7.395556 23.324444c-39.822222 196.835556-153.6 330.524444-342.471111 398.791111-32.426667 10.808889-66.56 17.635556-99.555555 26.737778zM500.053333 267.377778c0 16.497778-2.275556 30.72 0.568889 42.666666s12.515556 17.635556 19.342222 26.168889c7.964444-8.533333 19.342222-15.928889 22.755556-26.168889s1.706667-28.444444 0.568889-42.097777c-2.275556-30.72-18.204444-46.08-50.062222-46.08h-204.8c-34.133333 0-50.062222 16.497778-50.062223 51.2q-0.568889 238.933333 0 477.866666c0 35.84 16.497778 51.2 52.906667 51.768889H540.444444c7.395556-43.804444 7.395556-44.373333-31.288888-44.373333H285.013333V267.377778z m73.955556 534.755555c68.266667 0 134.257778 0.568889 200.248889-0.568889 27.306667-0.568889 43.804444-17.635556 43.804444-45.511111q1.137778-150.755556 0-301.511111c0-25.031111-14.791111-43.235556-39.822222-43.804444-67.697778-1.706667-135.964444-0.568889-204.8-0.568889V455.111111h197.973333v303.217778H574.577778z m-130.844445-102.4c0 18.204444 5.688889 24.462222 24.462223 21.048889s54.044444-9.671111 80.782222-15.928889a42.666667 42.666667 0 0 0 18.773333-11.377777c31.857778-31.288889 62.577778-63.146667 95.004445-93.866667 11.946667-11.946667 13.084444-21.048889 0.568889-32.995556-22.755556-21.617778-44.942222-43.235556-65.991112-65.991111-12.515556-13.653333-21.617778-10.24-32.426666 1.137778-21.048889 22.186667-40.391111 46.08-64.853334 63.715556-47.217778 34.702222-47.217778 85.333333-56.32 134.257777z m-54.613333-274.773333c18.773333 0 38.115556 2.275556 56.32-1.137778 9.671111-1.706667 17.066667-13.653333 25.6-20.48-7.964444-7.395556-15.928889-21.048889-24.462222-21.617778a843.662222 843.662222 0 0 0-110.364445 0c-8.533333 0.568889-15.928889 14.222222-23.893333 21.617778 7.395556 6.826667 14.222222 18.773333 22.755556 20.48 17.635556 3.413333 36.408889 1.137778 54.044444 1.137778z m4.551111-130.275556c-18.773333 0-38.115556-2.275556-56.32 1.137778-9.102222 1.706667-15.928889 13.653333-23.893333 21.048889 7.395556 6.826667 14.791111 18.773333 22.755555 19.342222a918.186667 918.186667 0 0 0 110.364445 0c8.533333-0.568889 16.497778-13.653333 24.462222-21.048889-8.533333-6.826667-16.497778-17.635556-26.168889-19.342222s-34.133333-1.137778-51.2-1.137778z m154.168889 158.151112a439.751111 439.751111 0 0 0-13.653333-52.337778c-1.137778-2.844444-21.048889-3.413333-22.186667-0.568889a468.195556 468.195556 0 0 0-14.791111 52.906667z" fill="#FD9442" p-id="17068"></path><path d="M596.764444 562.631111l30.151112 17.635556L546.133333 661.048889l-42.097777-43.235556 80.782222-78.506666L597.333333 563.2c-33.564444 2.844444-46.08 32.995556-65.422222 52.906667-0.568889 0.568889 9.671111 15.928889 14.791111 15.36 18.773333 0 52.906667-48.924444 50.062222-68.835556z" fill="#FD9B4E" p-id="17069"></path></svg>