<svg width="24" height="24" fill="none" xmlns="http://www.w3.org/2000/svg"><path d="M17.072 3.662A2.315 2.315 0 0 0 14.852 2h-.678a2.315 2.315 0 0 0-2.277 1.895l-1.185 6.43.322-1.103a2.315 2.315 0 0 1 2.222-1.666h3.921l1.647.641 1.588-.641h-.464a2.315 2.315 0 0 1-2.22-1.663l-.656-2.23Z" fill="url(#M365Copilot24_svg__a)"></path><path d="M7.166 20.328A2.315 2.315 0 0 0 9.389 22h1.454c1.248 0 2.271-.99 2.314-2.237l.214-6.343-.403 1.365a2.315 2.315 0 0 1-2.22 1.66H6.787l-1.412-.767-1.528.766h.456c1.03 0 1.937.682 2.223 1.672l.64 2.212Z" fill="url(#M365Copilot24_svg__b)"></path><path d="M14.75 2H6.73C4.44 2 3.064 5.028 2.147 8.056 1.061 11.643-.359 16.44 3.751 16.44h3.464a2.315 2.315 0 0 0 2.227-1.679c.602-2.106 1.658-5.78 2.486-8.576.422-1.421.772-2.642 1.311-3.402A1.81 1.81 0 0 1 14.751 2Z" fill="url(#M365Copilot24_svg__c)"></path><path d="M14.75 2H6.73C4.44 2 3.064 5.028 2.147 8.056 1.061 11.643-.359 16.44 3.751 16.44h3.464a2.315 2.315 0 0 0 2.227-1.679c.602-2.106 1.658-5.78 2.486-8.576.422-1.421.772-2.642 1.311-3.402A1.81 1.81 0 0 1 14.751 2Z" fill="url(#M365Copilot24_svg__d)"></path><path d="M9.25 22h8.02c2.291 0 3.666-3.028 4.582-6.055 1.086-3.588 2.507-8.385-1.604-8.385h-3.463a2.315 2.315 0 0 0-2.228 1.68c-.602 2.105-1.657 5.779-2.486 8.575-.42 1.421-.772 2.642-1.31 3.402A1.81 1.81 0 0 1 9.249 22Z" fill="url(#M365Copilot24_svg__e)"></path><path d="M9.25 22h8.02c2.291 0 3.666-3.028 4.582-6.055 1.086-3.588 2.507-8.385-1.604-8.385h-3.463a2.315 2.315 0 0 0-2.228 1.68c-.602 2.105-1.657 5.779-2.486 8.575-.42 1.421-.772 2.642-1.31 3.402A1.81 1.81 0 0 1 9.249 22Z" fill="url(#M365Copilot24_svg__f)"></path><defs><radialGradient id="M365Copilot24_svg__a" cx="0" cy="0" r="1" gradientUnits="userSpaceOnUse" gradientTransform="matrix(-5.49693 -6.79348 6.37302 -5.15672 19 10.38)"><stop offset="0.096" stop-color="#00AEFF"></stop><stop offset="0.773" stop-color="#2253CE"></stop><stop offset="1" stop-color="#0736C4"></stop></radialGradient><radialGradient id="M365Copilot24_svg__b" cx="0" cy="0" r="1" gradientUnits="userSpaceOnUse" gradientTransform="matrix(4.98016 6.47044 -6.24456 4.8063 5.575 16.245)"><stop stop-color="#FFB657"></stop><stop offset="0.634" stop-color="#FF5F3D"></stop><stop offset="0.923" stop-color="#C02B3C"></stop></radialGradient><radialGradient id="M365Copilot24_svg__e" cx="0" cy="0" r="1" gradientUnits="userSpaceOnUse" gradientTransform="rotate(109.282 8.15 10.403) scale(19.1879 22.994)"><stop offset="0.066" stop-color="#8C48FF"></stop><stop offset="0.5" stop-color="#F2598A"></stop><stop offset="0.896" stop-color="#FFB152"></stop></radialGradient><linearGradient id="M365Copilot24_svg__c" x1="6.25" y1="3.75" x2="7.394" y2="16.985" gradientUnits="userSpaceOnUse"><stop offset="0.156" stop-color="#0D91E1"></stop><stop offset="0.487" stop-color="#52B471"></stop><stop offset="0.652" stop-color="#98BD42"></stop><stop offset="0.937" stop-color="#FFC800"></stop></linearGradient><linearGradient id="M365Copilot24_svg__d" x1="7.25" y1="2" x2="7.875" y2="16.44" gradientUnits="userSpaceOnUse"><stop stop-color="#3DCBFF"></stop><stop offset="0.247" stop-color="#0588F7" stop-opacity="0"></stop></linearGradient><linearGradient id="M365Copilot24_svg__f" x1="21.294" y1="6.678" x2="21.286" y2="10.611" gradientUnits="userSpaceOnUse"><stop offset="0.058" stop-color="#F8ADFA"></stop><stop offset="0.708" stop-color="#A86EDD" stop-opacity="0"></stop></linearGradient></defs></svg>