<svg t="1726048966958" class="icon" viewBox="0 0 1024 1024" version="1.1" xmlns="http://www.w3.org/2000/svg" p-id="11373" width="200" height="200"><path d="M746.957 154.522v227.532c0 63.284-51.303 114.535-114.535 114.535H401.51c-63.283 0-114.534-51.303-114.534-114.535V129.075H246.17c-52.224 0-94.516 42.343-94.516 94.515v578.868c0 52.224 42.343 94.515 94.516 94.515h542.464c52.224 0 94.515-42.343 94.515-94.515V305.92a34.386 34.386 0 0 0-9.984-24.218l-126.208-127.18z" fill="#FF8E12" p-id="11374"></path><path d="M371.149 129.075v253.03c0 16.743 13.619 30.362 30.361 30.362h230.912c16.743 0 30.362-13.619 30.362-30.361v-253.03H371.149z m222.72 243.303h-120.73c-22.63 0-41.011-18.842-41.011-42.087s18.38-42.086 41.011-42.086h120.73c22.63 0 41.011 18.841 41.011 42.086s-18.38 42.087-41.011 42.087z" fill="#FCB138" p-id="11375"></path><path d="M883.098 305.92a34.386 34.386 0 0 0-9.984-24.218l-126.157-127.18v227.532c0 63.284-51.303 114.535-114.535 114.535H401.51c-63.283 0-114.534-51.303-114.534-114.535V129.075H246.17c-52.224 0-94.516 42.343-94.516 94.515v578.868c0 52.224 42.343 94.515 94.516 94.515h184.422c205.056-36.967 374.323-176.794 452.557-364.083V305.92z" fill="#FCA315" p-id="11376"></path><path d="M151.603 690.688c1.331 0 2.663 0.051 3.994 0.051 175.923 0 334.336-74.752 445.337-194.15H401.51c-63.283 0-114.534-51.303-114.534-114.535V129.075H246.17c-52.224 0-94.516 42.343-94.516 94.515v467.098z m606.362-525.107l-10.957-11.06v69.786c4.557-19.251 8.243-38.81 10.957-58.726z" fill="#FCB138" p-id="11377"></path><path d="M289.075 404.02c-1.382-7.118-2.15-14.44-2.15-21.966V129.075h-40.807c-52.224 0-94.515 42.343-94.515 94.515v233.626c48.384-12.186 94.464-30.208 137.472-53.197z m82.074-52.84c76.493-58.367 138.7-134.45 180.531-222.156H371.149v222.157z" fill="#FFC65E" p-id="11378"></path></svg>