<svg width="24" height="24" fill="none" xmlns="http://www.w3.org/2000/svg"><mask id="NotesPanelIcon_svg__g" maskUnits="userSpaceOnUse" x="3" y="3" width="19" height="19" fill="#000"><path fill="#fff" d="M3 3h19v19H3z"></path><path fill-rule="evenodd" clip-rule="evenodd" d="M7 4a3 3 0 0 0-3 3v11a3 3 0 0 0 3 3h6l8-8V7a3 3 0 0 0-3-3H7z"></path></mask><g filter="url(#NotesPanelIcon_svg__a)" fill-rule="evenodd" clip-rule="evenodd"><path d="M7 4a3 3 0 0 0-3 3v11a3 3 0 0 0 3 3h6l8-8V7a3 3 0 0 0-3-3H7z" fill="#FED430"></path><path d="M7 4a3 3 0 0 0-3 3v11a3 3 0 0 0 3 3h6l8-8V7a3 3 0 0 0-3-3H7z" fill="url(#NotesPanelIcon_svg__b)"></path><path d="M7 4a3 3 0 0 0-3 3v11a3 3 0 0 0 3 3h6l8-8V7a3 3 0 0 0-3-3H7z" fill="url(#NotesPanelIcon_svg__c)"></path><path d="M7 4a3 3 0 0 0-3 3v11a3 3 0 0 0 3 3h6l8-8V7a3 3 0 0 0-3-3H7z" fill="url(#NotesPanelIcon_svg__d)" fill-opacity="0.6"></path><path d="M7 4a3 3 0 0 0-3 3v11a3 3 0 0 0 3 3h6l8-8V7a3 3 0 0 0-3-3H7z" fill="url(#NotesPanelIcon_svg__e)"></path></g><path d="M13 21v.5h.207l.147-.146L13 21zm8-8 .354.354.146-.147V13H21zM4.5 7A2.5 2.5 0 0 1 7 4.5v-1A3.5 3.5 0 0 0 3.5 7h1zm0 11V7h-1v11h1zM7 20.5A2.5 2.5 0 0 1 4.5 18h-1A3.5 3.5 0 0 0 7 21.5v-1zm6 0H7v1h6v-1zm.354.854 8-8-.708-.708-8 8 .708.708zM20.5 7v6h1V7h-1zM18 4.5A2.5 2.5 0 0 1 20.5 7h1A3.5 3.5 0 0 0 18 3.5v1zm-11 0h11v-1H7v1z" fill="url(#NotesPanelIcon_svg__f)" mask="url(#NotesPanelIcon_svg__g)"></path><g filter="url(#NotesPanelIcon_svg__h)"><path d="M13.5 15.5a2 2 0 0 1 2-2h5l-7 7v-5z" fill="#FFEF72"></path></g><path fill-rule="evenodd" clip-rule="evenodd" d="M21 13h-5a3 3 0 0 0-3 3v5l.5-.5V16a2.5 2.5 0 0 1 2.5-2.5h4.5l.5-.5z" fill="url(#NotesPanelIcon_svg__i)"></path><defs><linearGradient id="NotesPanelIcon_svg__b" x1="18.45" y1="4" x2="12.5" y2="21" gradientUnits="userSpaceOnUse"><stop offset="0.099" stop-color="#FEDC50"></stop><stop offset="1" stop-color="#FDBA56"></stop></linearGradient><linearGradient id="NotesPanelIcon_svg__d" x1="14.626" y1="-0.25" x2="7" y2="25" gradientUnits="userSpaceOnUse"><stop offset="0.523" stop-color="#F59639" stop-opacity="0"></stop><stop offset="0.973" stop-color="#F70A8D"></stop></linearGradient><linearGradient id="NotesPanelIcon_svg__f" x1="19.226" y1="5.775" x2="5.214" y2="20.346" gradientUnits="userSpaceOnUse"><stop stop-color="#E87C41"></stop><stop offset="1" stop-color="#D24CA0"></stop></linearGradient><linearGradient id="NotesPanelIcon_svg__i" x1="20.165" y1="13.835" x2="13.572" y2="20.692" gradientUnits="userSpaceOnUse"><stop stop-color="#E87C41"></stop><stop offset="1" stop-color="#D24CA0"></stop></linearGradient><radialGradient id="NotesPanelIcon_svg__c" cx="0" cy="0" r="1" gradientUnits="userSpaceOnUse" gradientTransform="rotate(96.523 1.622 10.764) scale(13.21 16.9195)"><stop offset="0.734" stop-color="#F59639" stop-opacity="0"></stop><stop offset="0.973" stop-color="#FF7DCE"></stop></radialGradient><radialGradient id="NotesPanelIcon_svg__e" cx="0" cy="0" r="1" gradientUnits="userSpaceOnUse" gradientTransform="rotate(122.005 9.223 5.765) scale(14.151)"><stop stop-color="#FFF074"></stop><stop offset="1" stop-color="#FFB149" stop-opacity="0"></stop></radialGradient><filter id="NotesPanelIcon_svg__a" x="3.5" y="3.5" width="19.313" height="18" filterUnits="userSpaceOnUse" color-interpolation-filters="sRGB"><feFlood flood-opacity="0" result="BackgroundImageFix"></feFlood><feBlend in="SourceGraphic" in2="BackgroundImageFix" result="shape"></feBlend><feColorMatrix in="SourceAlpha" values="0 0 0 0 0 0 0 0 0 0 0 0 0 0 0 0 0 0 127 0" result="hardAlpha"></feColorMatrix><feOffset dx="1.313"></feOffset><feGaussianBlur stdDeviation="1"></feGaussianBlur><feComposite in2="hardAlpha" operator="arithmetic" k2="-1" k3="1"></feComposite><feColorMatrix values="0 0 0 0 0.94902 0 0 0 0 0.396078 0 0 0 0 0.133333 0 0 0 0.3 0"></feColorMatrix><feBlend in2="shape" result="effect1_innerShadow_6294_121797"></feBlend></filter><filter id="NotesPanelIcon_svg__h" x="11" y="11" width="11" height="11" filterUnits="userSpaceOnUse" color-interpolation-filters="sRGB"><feFlood flood-opacity="0" result="BackgroundImageFix"></feFlood><feColorMatrix in="SourceAlpha" values="0 0 0 0 0 0 0 0 0 0 0 0 0 0 0 0 0 0 127 0" result="hardAlpha"></feColorMatrix><feOffset dx="-0.5" dy="-0.5"></feOffset><feGaussianBlur stdDeviation="1"></feGaussianBlur><feComposite in2="hardAlpha" operator="out"></feComposite><feColorMatrix values="0 0 0 0 0.898039 0 0 0 0 0.447059 0 0 0 0 0.270588 0 0 0 1 0"></feColorMatrix><feBlend in2="BackgroundImageFix" result="effect1_dropShadow_6294_121797"></feBlend><feBlend in="SourceGraphic" in2="effect1_dropShadow_6294_121797" result="shape"></feBlend></filter></defs></svg>