<?xml version="1.0" standalone="no"?><!DOCTYPE svg PUBLIC "-//W3C//DTD SVG 1.1//EN" "http://www.w3.org/Graphics/SVG/1.1/DTD/svg11.dtd"><svg t="1725014010747" class="icon" viewBox="0 0 1024 1024" version="1.1" xmlns="http://www.w3.org/2000/svg" p-id="8882" xmlns:xlink="http://www.w3.org/1999/xlink" width="200" height="200"><path d="M256 341.333333a85.333333 85.333333 0 0 1 85.333333-85.333333h341.333334a85.333333 85.333333 0 0 1 85.333333 85.333333v195.982223a85.333333 85.333333 0 0 1-20.536889 55.552l-124.586667 145.351111A85.333333 85.333333 0 0 1 558.08 768H341.333333a85.333333 85.333333 0 0 1-85.333333-85.333333V341.333333z" fill="#08CCAB" p-id="8883"></path><path d="M654.222222 540.444444h54.414222a14.222222 14.222222 0 0 1 10.808889 23.466667l-130.56 152.291556a11.377778 11.377778 0 0 1-19.996444-7.395556V625.777778a85.333333 85.333333 0 0 1 85.333333-85.333334z" fill="#CEF5EE" p-id="8884"></path></svg>