<svg t="1726060647622" class="icon" viewBox="0 0 1131 1024" version="1.1" xmlns="http://www.w3.org/2000/svg" p-id="6336" width="200" height="200"><path d="M235.636303 7.644088a80.647695 80.647695 0 0 1 68.540281 0 167.708216 167.708216 0 0 1 41.914228 30.781563l161.244088 141.082165h115.276954l161.244088-141.082165a169.298597 169.298597 0 0 1 41.914229-30.781563 80.647695 80.647695 0 0 1 107.222445 66.693387 80.647695 80.647695 0 0 1-17.750702 54.021643 450.693387 450.693387 0 0 1-35.501403 32.269339 233.016433 233.016433 0 0 1-22.573146 18.52024h100.809619a170.940281 170.940281 0 0 1 118.509018 53.200802 171.761122 171.761122 0 0 1 54.021644 118.509018v463.621643a326.541082 326.541082 0 0 1-4.052906 70.130662 178.99479 178.99479 0 0 1-80.647696 112.865731 173.351503 173.351503 0 0 1-92.703807 25.651303H213.063157a341.880561 341.880561 0 0 1-72.541884-4.052906 178.173948 178.173948 0 0 1-111.326653-80.185972 172.530661 172.530661 0 0 1-27.652105-92.703808V387.385972a361.221643 361.221643 0 0 1 0-66.693387 177.404409 177.404409 0 0 1 161.244089-143.647294h105.888577c-16.92986-12.107415-31.448497-26.626052-46.787976-39.503006a81.571142 81.571142 0 0 1 13.697795-129.795592m-18.571543 312.740682a80.647695 80.647695 0 0 0-63.61523 58.023246 108.864128 108.864128 0 0 0 0 30.781563v381.383568a80.647695 80.647695 0 0 0 55.612024 80.647695 106.452906 106.452906 0 0 0 34.680561 5.643286h655.647295a80.647695 80.647695 0 0 0 76.440881-47.916633 112.865731 112.865731 0 0 0 8.054509-53.200801V421.245691a135.438878 135.438878 0 0 0 0-38.682164 80.647695 80.647695 0 0 0-52.431262-54.842485 129.795591 129.795591 0 0 0-49.968738-7.233667H254.977385a269.287375 269.287375 0 0 0-37.912625 0z" fill="#ffffff" p-id="6337"></path><path d="M349.322876 446.23006a79.36513 79.36513 0 0 1 83.87976 78.18517v80.647696a79.672946 79.672946 0 0 1-148.367135 41.914228 104.811222 104.811222 0 0 1-10.260521-54.842485V511.538277a80.647695 80.647695 0 0 1 70.130662-67.719439z m416.833667 0a80.647695 80.647695 0 0 1 86.188377 74.645291v81.776352a94.345491 94.345491 0 0 1-12.107415 53.200802 80.647695 80.647695 0 0 1-133.027655 0 95.935872 95.935872 0 0 1-12.876954-57.253707v-80.596393a80.647695 80.647695 0 0 1 70.130662-70.951503z" fill="#ffffff" p-id="6338"></path></svg>